<svg width="14" height="25" viewBox="0 0 14 25" fill="none" xmlns="http://www.w3.org/2000/svg">
<path d="M2.99498 14.8314L5.77475 8.42899H6.70732V10.2403L4.73458 14.8314H6.20517V14.0065C6.20517 13.8056 6.53993 13.7913 6.70732 13.8092V16.3379C6.24821 16.3379 6.18125 16.1825 6.20517 16.1047V15.3874H4.46557L0.161406 25H0L1.09397 21.6822C1.09397 21.6822 0.125538 21.3056 0.44835 20.4986C0.771162 19.6915 2.70803 15.3874 2.70803 15.3874H0.44835V14.8314H2.99498Z" fill="#333333"/>
<path d="M10.2403 14.8314L7.46055 8.42899H6.52798V10.2403L8.50072 14.8314H7.03013V14.0065C7.03013 13.8056 6.69536 13.7913 6.52798 13.8092V16.3379C6.98709 16.3379 7.05404 16.1825 7.03013 16.1047V15.3874H8.76973L13.0739 25H13.2353L12.1413 21.6822C12.1413 21.6822 13.1098 21.3056 12.7869 20.4986C12.4641 19.6915 10.5273 15.3874 10.5273 15.3874H12.7869V14.8314H10.2403Z" fill="#333333"/>
<path fill-rule="evenodd" clip-rule="evenodd" d="M6.6356 7.49641C7.6855 7.49641 8.53661 6.6453 8.53661 5.59541C8.53661 4.54551 7.6855 3.6944 6.6356 3.6944C5.58571 3.6944 4.7346 4.54551 4.7346 5.59541C4.7346 6.6453 5.58571 7.49641 6.6356 7.49641ZM6.6356 8.53658C8.25997 8.53658 9.57678 7.21978 9.57678 5.59541C9.57678 3.97104 8.25997 2.65423 6.6356 2.65423C5.01124 2.65423 3.69443 3.97104 3.69443 5.59541C3.69443 7.21978 5.01124 8.53658 6.6356 8.53658Z" fill="#333333"/>
<path d="M6.09758 0H7.17362V2.83357H6.09758V0Z" fill="#333333"/>
</svg>
