<svg width="64" height="62" viewBox="0 0 64 62" fill="none" xmlns="http://www.w3.org/2000/svg">
<path d="M54.2375 61.6926H9.76252C6.63752 61.6926 4.08752 59.0758 4.08752 55.8403C4.08752 52.6047 6.62502 49.9879 9.76252 49.9879H54.2375C57.3625 49.9879 59.9125 52.6176 59.9125 55.8403C59.9 59.0758 57.3625 61.6926 54.2375 61.6926ZM9.76252 53.7649C8.65002 53.7649 7.75002 54.693 7.75002 55.8403C7.75002 56.9875 8.65002 57.9156 9.76252 57.9156H54.2375C55.35 57.9156 56.25 56.9875 56.25 55.8403C56.25 54.693 55.35 53.7649 54.2375 53.7649H9.76252Z" fill="#2D527C"/>
<path d="M32.0001 7.73243C30.9876 7.73243 30.175 6.89454 30.175 5.8504V2.18947C30.175 1.14532 30.9876 0.307434 32.0001 0.307434C33.0126 0.307434 33.8251 1.14532 33.8251 2.18947V5.8504C33.8251 6.89454 33.0126 7.73243 32.0001 7.73243Z" fill="#2D527C"/>
<path d="M62.175 33.3074H58.625C57.6125 33.3074 56.8 32.4695 56.8 31.4254C56.8 30.3813 57.6125 29.5434 58.625 29.5434H62.175C63.1875 29.5434 64 30.3813 64 31.4254C64 32.4695 63.1875 33.3074 62.175 33.3074Z" fill="#2D527C"/>
<path d="M5.375 33.3074H1.825C0.8125 33.3074 0 32.4695 0 31.4254C0 30.3813 0.8125 29.5434 1.825 29.5434H5.375C6.3875 29.5434 7.2 30.3813 7.2 31.4254C7.2 32.4695 6.3875 33.3074 5.375 33.3074Z" fill="#2D527C"/>
<path d="M49.5375 15.2219C49.075 15.2219 48.6 15.0414 48.25 14.6676C47.5375 13.9328 47.5375 12.734 48.25 11.9992L50.75 9.4211C51.4625 8.68633 52.625 8.68633 53.3375 9.4211C54.05 10.1559 54.05 11.3547 53.3375 12.0895L50.825 14.6805C50.475 15.0414 50 15.2219 49.5375 15.2219Z" fill="#2D527C"/>
<path d="M14.4625 15.2219C14 15.2219 13.525 15.0414 13.175 14.6676L10.6625 12.0766C9.95005 11.3418 9.95005 10.143 10.6625 9.40822C11.375 8.67346 12.5375 8.67346 13.25 9.40822L15.7625 11.9992C16.475 12.734 16.475 13.9328 15.7625 14.6676C15.4 15.0414 14.9375 15.2219 14.4625 15.2219Z" fill="#2D527C"/>
</svg>
